# xmcd
#
# Track frame offsets: 
#        150
#        18670
#        35248
#        50543
#        74447
#        92113
#        123542
#        135377
#        154861
#        178339
#        199276
#
# Disc length: 2850 seconds
#
# Revision: 0
# Processed by: cddbd v1.5.2PL0 Copyright (c) Steve Scherf et al.
# Submitted via: ExactAudioCopy v1.3
#
DISCID=a70b200b
DTITLE=Travellin' Blue Kings - Wired Up
DYEAR=2018
DGENRE=Blues
TTITLE0=I Don't Wanna Stop
TTITLE1=About This World
TTITLE2=The Way It Used To Be
TTITLE3=I Cannot Believe
TTITLE4=Straight Eight
TTITLE5=I'm A Good Man
TTITLE6=Wired Up
TTITLE7=Ninety Minutes
TTITLE8=Get It Done
TTITLE9=Your Being
TTITLE10=Into The Night
EXTD=
EXTT0=
EXTT1=
EXTT2=
EXTT3=
EXTT4=
EXTT5=
EXTT6=
EXTT7=
EXTT8=
EXTT9=
EXTT10=
PLAYORDER=
